inDegrees=no
num_controls=7
num_derivatives=13
num_iterations=147
num_multipliers=7
num_parameters=0
num_slacks=7
num_states=26
objective=5.537101
objective_accelerations=0.469736
objective_balance=0.016044
objective_effort=0.401888
objective_height=4.526050
objective_ligament=0.123382
solver_duration=1233.460232
status=Solve_Succeeded
success=true
DataType=double
version=3
OpenSimVersion=4.4-2022-07-23-0e9fedc
endheader
time	/jointset/ground_pelvis/pelvis_tilt/value	/jointset/ground_pelvis/pelvis_tx/value	/jointset/ground_pelvis/pelvis_ty/value	/jointset/hip_r/hip_flexion_r/value	/jointset/hip_r/hip_adduction_r/value	/jointset/hip_r/hip_rotation_r/value	/jointset/back/lumbar_extension/value	/jointset/patellofemoral_r/patellar_flexion_r/value	/jointset/knee_r/knee_flexion_r/value	/jointset/knee_r/knee_adduction_r/value	/jointset/knee_r/knee_rotation_r/value	/jointset/ankle_r/ankle_angle_r/value	/jointset/subtalar_r/subtalar_angle_r/value	/jointset/ground_pelvis/pelvis_tilt/speed	/jointset/ground_pelvis/pelvis_tx/speed	/jointset/ground_pelvis/pelvis_ty/speed	/jointset/hip_r/hip_flexion_r/speed	/jointset/hip_r/hip_adduction_r/speed	/jointset/hip_r/hip_rotation_r/speed	/jointset/back/lumbar_extension/speed	/jointset/patellofemoral_r/patellar_flexion_r/speed	/jointset/knee_r/knee_flexion_r/speed	/jointset/knee_r/knee_adduction_r/speed	/jointset/knee_r/knee_rotation_r/speed	/jointset/ankle_r/ankle_angle_r/speed	/jointset/subtalar_r/subtalar_angle_r/speed	/forceset/tau_hip_flexion_r	/forceset/tau_hip_adduction_r	/forceset/tau_hip_rotation_r	/forceset/tau_knee_flexion_r	/forceset/tau_ankle_angle_r	/forceset/tau_subtalar_angle_r	/forceset/tau_lumbar_extension	lambda_cid13_p0	lambda_cid14_p0	lambda_cid14_p1	lambda_cid14_p2	lambda_cid14_p3	lambda_cid14_p4	lambda_cid14_p5	/jointset/ground_pelvis/pelvis_tilt/accel	/jointset/ground_pelvis/pelvis_tx/accel	/jointset/ground_pelvis/pelvis_ty/accel	/jointset/hip_r/hip_flexion_r/accel	/jointset/hip_r/hip_adduction_r/accel	/jointset/hip_r/hip_rotation_r/accel	/jointset/back/lumbar_extension/accel	/jointset/patellofemoral_r/patellar_flexion_r/accel	/jointset/knee_r/knee_flexion_r/accel	/jointset/knee_r/knee_adduction_r/accel	/jointset/knee_r/knee_rotation_r/accel	/jointset/ankle_r/ankle_angle_r/accel	/jointset/subtalar_r/subtalar_angle_r/accel	gamma_cid13_p0	gamma_cid14_p0	gamma_cid14_p1	gamma_cid14_p2	gamma_cid14_p3	gamma_cid14_p4	gamma_cid14_p5
0.5	-0.1010492757948818	0.04785960824881014	0.8302494226298779	0.7702789433411481	-0.2494631708298182	-0.0749524455009917	-0.6349271816459464	0.8828424501586402	0.8828424501586488	0.06033988194273935	0.1741517224254645	0.2875737615321617	0.09444006651789867	-0.2675043998563252	-0.1678429842773695	-0.3994885655477559	1.545534554631683	-0.05826069619135545	0.4783151850133997	-0.7401827761045261	1.736227624153678	1.736227624153689	-0.04646520192672837	-0.004007863961300701	0.5230793685687379	0.08268901261809793	-0.1742515993973742	0.00111210070302445	0.03189952603256251	-0.2760530455748333	-0.02150559596911429	-0.00830778585392916	0.2254721395665175	-11.76461947202679	-49.95853948576715	-10.05277136743869	-0.6055922839294668	-0.7018803892123032	-646.4097440190941	62.54100541481591	0.1660112981210998	0.4392201818072831	-0.3068141881335619	-1.059084658667577	0.1639053568588646	-0.005304922648457196	1.587474437099941	-1.289841536841609	-1.289841536841606	0.6018211681484252	-0.009385831681115963	-0.4380263536307829	0.1344325474758291	-4.569179537077865e-08	-1.706506078262904e-09	5.857669953146285e-07	-1.90474896397187e-07	-6.203375593769154e-08	-7.624686045134336e-08	4.038812583612546e-07
0.51	-0.1037155914952269	0.04620328788804163	0.8262400753492938	0.7856791159555326	-0.2500376668701016	-0.0701706831687479	-0.6422487575876366	0.9001376930692516	0.9001376930692523	0.05990516454745679	0.1741119805298298	0.292781763806483	0.09527331631408864	-0.2657183074206556	-0.1634070900242702	-0.4022920179730719	1.534287978482993	-0.05662290443813259	0.4779665726760148	-0.7240412848304784	1.722578410922506	1.722578410922499	-0.04051920528280517	-0.003932506300228454	0.518447005655377	0.08396543926795549	-0.1798169043716757	0.001868325081896062	0.03267371867737551	-0.2800631875486289	-0.02330843834936807	-0.00789064413646693	0.2307616678156756	-10.8499400793862	-50.76481358250825	-10.11236019996289	-0.4823467533420199	-0.5286623302721414	-650.3459638042954	62.92141492635726	0.1909738006654617	0.4478606673811248	-0.2537942749553135	-1.189242177535653	0.1660740478960215	-0.06031285846741973	1.641155583007731	-1.438834802851646	-1.438834802854387	0.5849301762530498	0.01718240887909729	-0.486967736496148	0.1249954165821096	-4.000829001045983e-08	1.102054871471799e-08	6.621606012280822e-07	-1.238485084579676e-07	-7.607079287685401e-08	-7.111884414211104e-08	4.508823450712595e-07
0.52	-0.1063628331543356	0.044591743793868	0.8222053568434113	0.8009604631915169	-0.2505953134001773	-0.06539454165372073	-0.6494061847944963	0.9172891691302457	0.9172891691302182	0.05952869537139456	0.1740732293795625	0.2979412171564091	0.09611947991534636	-0.2636895916099718	-0.1588877309583927	-0.4045628106073779	1.521769478951657	-0.05489079415123267	0.4771910215712781	-0.7073530291384105	1.707474254227469	1.707474254227443	-0.03481555808933408	-0.003809714884046001	0.5133695836897205	0.08527177363146889	-0.1853822093460039	0.002624549460765838	0.03344791132205913	-0.28407332952243	-0.02511128072961968	-0.007473502419004414	0.236051196064811	-9.939340540945325	-51.5740718402943	-10.17074247928342	-0.3612691780454452	-0.3678583769171667	-654.3300003503866	63.32914356580638	0.2145359731239145	0.4559131443629197	-0.2002822299315708	-1.313469335197047	0.1827690635942656	-0.09069267611879896	1.69682732070394	-1.580830229614743	-1.580830229614746	0.5533512780579908	0.000100919340916117	-0.5270381640898933	0.1404140902070083	-3.527176714917226e-08	2.714619203525259e-08	8.008717511139161e-07	-4.716420305519226e-08	-9.7857317972981e-08	-6.939282029781819e-08	5.42062908274823e-07
0.53	-0.1089885748990105	0.04302575892773716	0.818150639753855	0.8161102949023959	-0.2511351839644118	-0.06062895796252483	-0.6563941869846176	0.9342823550813266	0.9342823550813263	0.05920751026643008	0.1740363356193738	0.3030476811736732	0.09697884489743844	-0.2614214199965594	-0.1542999922385758	-0.4062880521889217	1.507991551250201	-0.05306672579012926	0.4758337703658087	-0.6901703619379759	1.690925298275149	1.690925298275151	-0.02948830574302998	-0.003559778381312401	0.5078517503430563	0.08660881909299142	-0.1907975222950187	0.003375870485811234	0.0342008363866589	-0.2882121290318011	-0.0268238591186097	-0.007130452256999906	0.2411984628211332	-9.035217035918082	-52.36486644681562	-10.26490003370662	-0.226685801917563	-0.1744320598167847	-658.3653461752532	63.69451556553253	0.238563358195604	0.4615698800188929	-0.1447755522659371	-1.440745878505021	0.1847688561412505	-0.1721023026634151	1.740543461901635	-1.727567378583092	-1.727567378578985	0.5125048496882714	0.03885295348580917	-0.5748968309824751	0.1316250822783758	-3.04362177921051e-08	4.030189345647524e-08	9.069773516153757e-07	1.970530994687672e-08	-1.154757647583081e-07	-6.607320122441274e-08	6.158873341900143e-07
0.54	-0.1115905138069973	0.04150592457764995	0.8140814441624831	0.8311161890580835	-0.2516563052182735	-0.05587971897536682	-0.6632080510942973	0.9511029236527954	0.9511029236527931	0.05893761621232813	0.1740022238117413	0.3080968186752643	0.09785183539577749	-0.258929024273329	-0.1496576277496659	-0.4074585109704745	1.49298196791333	-0.05114093207812159	0.4739220807642497	-0.6725254130500056	1.67295077830113	1.67295077830116	-0.02455734792586555	-0.003253324368727857	0.5019042805552808	0.08799687688065484	-0.1962128352440581	0.004127191510872919	0.03495376145109381	-0.292350928541178	-0.02853643750759134	-0.00678740209496428	0.2463457295774315	-8.163587792369903	-53.15729868466039	-10.35556538161847	-0.09697615086264591	0.002408940875376655	-662.4299714079432	64.08710207508535	0.2593807950874913	0.4668382981815227	-0.08932566993337036	-1.559800462280097	0.203114133775103	-0.2015803553367025	1.789283658211074	-1.86594303395448	-1.865943033954479	0.4740923722300445	0.01140442131109354	-0.6129654523121879	0.1506165554352005	-2.549110720566477e-08	5.017170171250164e-08	9.770087272660375e-07	7.571590369710025e-08	-1.284827206465798e-07	-6.099045551454228e-08	6.705092252329637e-07
0.55	-0.1141664163363394	0.04003274342221595	0.8100033326770179	0.8459659142285761	-0.2521577438831219	-0.05115269101680677	-0.6698433033664513	0.9677367578402968	0.9677367578403117	0.05871483931707724	0.1739716960612742	0.3130843799991194	0.09873885137347199	-0.2562148031456937	-0.1449732681697072	-0.4080699404795478	1.476764891566918	-0.04913735353813815	0.4713875137646752	-0.6544618925653822	1.653591894606143	1.653591894606169	-0.02006431961860068	-0.002839666785397085	0.4955414612883284	0.08940463995355144	-0.2014612971318137	0.00481961263125469	0.03567122806484143	-0.2965836855247723	-0.03017819284630554	-0.006499810439301429	0.251322620706792	-7.341588127274792	-53.93079937518144	-10.46846280526062	0.03794741935218019	0.2091164619116167	-666.4638966884833	64.45218962940609	0.2829518791574074	0.4700079475057378	-0.03298638855302138	-1.682379129316955	0.2004720322567085	-0.2938603174221962	1.824358565910859	-2.004481167751236	-2.004481167751819	0.4271011407964965	0.05828316271561617	-0.6579424144608196	0.1357757168400635	-2.030390200679406e-08	5.670716088460328e-08	1.000135285291527e-06	1.203611488727412e-07	-1.355432236999754e-07	-5.36305613827104e-08	6.947221149176506e-07
0.5600000000000001	-0.1167140748328893	0.03860656049450196	0.80592191993703	0.8606475250539051	-0.2526388482989342	-0.04645390181727438	-0.6762960259692947	0.984170279164772	0.9841702791647755	0.05853503132112824	0.1739456922337872	0.3180063126801889	0.09963992888862126	-0.2532802177158352	-0.1402579822056623	-0.4081187618749739	1.459359098880688	-0.04707408227229887	0.4682743289589341	-0.6360194791878444	1.632888205691941	1.632888205691964	-0.0159635680784717	-0.002348539767202152	0.4887785519984141	0.09080918437137607	-0.2067097590195956	0.005512033751661198	0.03638869467835251	-0.3008164425083744	-0.03181994818500809	-0.006212218783591231	0.2562995118361261	-6.56962082806547	-54.70535876451755	-10.57639366476252	0.1661940442505969	0.3966133802950372	-670.5199074629643	64.84432633028027	0.3034536555321198	0.4730235749987504	0.02319595279606322	-1.797543730243826	0.2150526789462486	-0.3173039165700351	1.865062236793963	-2.134904077797194	-2.134904077797197	0.395637018802859	0.02689830828391198	-0.6929834569045999	0.1499728244208154	-1.48261832730069e-08	5.924140115599532e-08	9.669760621668123e-07	1.513679757588836e-07	-1.354679833515198e-07	-4.35380891445249e-08	6.824442029724237e-07
0.5700000000000001	-0.1192313225705383	0.03722764625211188	0.8018428182780781	0.8751493009294172	-0.2530990552543969	-0.04178897579769443	-0.6825625267142597	1.00039026522979	1.000390265229811	0.05839430957379547	0.173924830091111	0.3228587122273008	0.1005550054932221	-0.250131816212368	-0.1355229704131126	-0.4076081842244634	1.440805928374361	-0.04496423644084442	0.4646331400397879	-0.6172317946238642	1.610903144940536	1.610903144940552	-0.01222988453693029	-0.001820904924800016	0.4816422651410934	0.09219622895570882	-0.2117676102761693	0.006134005389034546	0.03706988228024691	-0.3050917139612088	-0.03339953110227026	-0.005968163557883516	0.2610748641017391	-5.847647422856508	-55.45806982844152	-10.69980908904851	0.2973689619229553	0.6114685333885479	-674.4701724117195	65.21254056016686	0.3261677504442121	0.4739972751372519	0.07898895897006823	-1.912717294130808	0.2094877555309885	-0.3992394877040256	1.89295284341342	-2.261184084200785	-2.261184084201763	0.3549930987548071	0.06620918702605935	-0.7328374295749932	0.1317523818513682	-9.946638276001366e-09	6.091410004942387e-08	9.297825851207821e-07	1.769681699240256e-07	-1.345088699485988e-07	-3.389286673575055e-08	6.669350400034295e-07
0.58	-0.1217159594226098	0.03589613358639802	0.7977716224531896	0.8894598423832049	-0.2535380563074811	-0.03716280428893069	-0.6886396843581427	1.016384225285234	1.01638422528525	0.05828947647733297	0.1739093469197906	0.3276379716799525	0.1014836889649498	-0.2467580406013041	-0.1307776668704174	-0.4065375950622984	1.421112214535879	-0.04283290179796592	0.4605234267959658	-0.5981508589713507	1.587683003773587	1.587683003773597	-0.008785837918395691	-0.001272745490087541	0.4741505331066055	0.09353055779651678	-0.2168254615327695	0.006755977026431654	0.03775106988187146	-0.3093669854140519	-0.03497911401952085	-0.005724108332128712	0.2658502163673261	-5.175244183798068	-56.21255075033994	-10.81851636250611	0.4220613593496884	0.8076532748404633	-678.4532632924387	65.60624974049156	0.3485284770514613	0.4750819250278464	0.1351982551269455	-2.025652396674771	0.2193504412310341	-0.4110087815052217	1.923712454500653	-2.381920160905995	-2.381920160905996	0.3377096342014948	0.03100322674596562	-0.7640724923380464	0.1394296757158594	-5.846110238525409e-09	6.14647915669e-08	8.873351959911789e-07	1.955271679873996e-07	-1.323986660561416e-07	-2.483010922109311e-08	6.472177361662734e-07
0.59	-0.1241657900035089	0.0346120895002083	0.7937139115399926	0.9035679232877891	-0.2539556522932083	-0.03258001942254653	-0.6945246469989066	1.032140008626201	1.032140008626187	0.05821759260266846	0.17389935388248	0.3323406237660012	0.1024254445471263	-0.2431716084209559	-0.1260324424890342	-0.4049122944250982	1.400322978615012	-0.04068783750121139	0.4559585719957533	-0.5788059583889963	1.563283533923927	1.563283533923933	-0.005635700741958759	-0.0007235326018450426	0.466327382911343	0.09480469167664557	-0.2216571267933544	0.007329806022469825	0.03839283309647867	-0.3136777405578126	-0.03646506918398271	-0.005536902978906719	0.270392184087792	-4.551674073158782	-56.93354632465165	-10.95859801311646	0.5530713536904989	1.025769814841482	-682.291565347585	65.95950627486665	0.3691774881474805	0.4740226439228165	0.1900360366867916	-2.132699001801735	0.2119268764685717	-0.4905116924296661	1.945235478991154	-2.497479282722947	-2.497479282723514	0.2970615835220802	0.06730193191523336	-0.7993318084343988	0.1191844525348249	-2.160200368112034e-09	6.141307712575222e-08	8.429439412916875e-07	2.104149758185227e-07	-1.296910320482997e-07	-1.640250997749572e-08	6.259864707155721e-07
